HIERARCHY
ROOT Hips
{
	OFFSET 0.00000 0.00000 0.00000
	CHANNELS 6 Xposition Yposition Zposition Zrotation Yrotation Xrotation 
	JOINT LHipJoint
	{
		OFFSET 0 0 0
		CHANNELS 3 Zrotation Yrotation Xrotation
		JOINT LeftHip
		{
			OFFSET 1.54859 -1.61379 0.86856
			CHANNELS 3 Zrotation Yrotation Xrotation
			JOINT LeftKnee
			{
				OFFSET 2.25087 -6.18423 0.00000
				CHANNELS 3 Zrotation Yrotation Xrotation
				JOINT LeftAnkle
				{
					OFFSET 2.40328 -6.60297 0.00000
					CHANNELS 3 Zrotation Yrotation Xrotation
					JOINT LeftToe
					{
						OFFSET 0.17435 -0.47901 2.02453
						CHANNELS 3 Zrotation Yrotation Xrotation
						End Site
						{
							OFFSET 0.00000 -0.00000 1.04844
						}
					}
				}
			}
		}
	}
	JOINT RHipJoint
	{
		OFFSET 0 0 0
		CHANNELS 3 Zrotation Yrotation Xrotation
		JOINT RightHip
		{
			OFFSET -1.54669 -1.61379 0.86856
			CHANNELS 3 Zrotation Yrotation Xrotation
			JOINT RightKnee
			{
				OFFSET -2.28132 -6.26789 0.00000
				CHANNELS 3 Zrotation Yrotation Xrotation
				JOINT RightAnkle
				{
					OFFSET -2.51636 -6.91365 0.00000
					CHANNELS 3 Zrotation Yrotation Xrotation
					JOINT RightToe
					{
						OFFSET -0.15124 -0.41552 2.21090
						CHANNELS 3 Zrotation Yrotation Xrotation
						End Site
						{
							OFFSET -0.00000 -0.00000 1.13399
						}
					}
				}
			}
		}
	}
	JOINT lowerback
	{
		OFFSET 0 0 0
		CHANNELS 3 Zrotation Yrotation Xrotation
		JOINT Chest
		{
			OFFSET -0.04287 2.26161 -0.25690
			CHANNELS 3 Zrotation Yrotation Xrotation
			JOINT Chest2
			{
				OFFSET 0.02248 2.28395 -0.10140
				CHANNELS 3 Zrotation Yrotation Xrotation
				JOINT lowerneck
				{
					OFFSET 0 0 0
					CHANNELS 3 Zrotation Yrotation Xrotation
					JOINT Neck
					{
						OFFSET -0.11644 1.38496 0.11345
						CHANNELS 3 Zrotation Yrotation Xrotation
						JOINT Head
						{
							OFFSET 0.29383 1.36600 0.06642
							CHANNELS 3 Zrotation Yrotation Xrotation
							End Site
							{
								OFFSET 0.11075 1.41395 -0.00294
							}
						}
					}
				}
				JOINT LeftCollar
				{
					OFFSET 0 0 0
					CHANNELS 3 Zrotation Yrotation Xrotation
					JOINT LeftShoulder
					{
						OFFSET 3.51628 0.59542 -0.30346
CHANNELS 3 Zrotation Xrotation Yrotation
						JOINT LeftElbow
						{
OFFSET 0 -4.764050 0.000000
CHANNELS 3 Zrotation Xrotation Yrotation
							JOINT LeftWrist
							{
OFFSET 0 -3.137590 -0.000000
CHANNELS 3 Zrotation Xrotation Yrotation
								JOINT lhand
								{
									OFFSET 0 0 0
CHANNELS 3 Zrotation Xrotation Yrotation
									JOINT LFingers
									{
OFFSET 0 -0.732260 -0.000000
CHANNELS 3 Zrotation Xrotation Yrotation
										End Site
										{
OFFSET 0 -0.590370 -0.000000
										}
									}
								}
								JOINT LThumb
								{
OFFSET 0 0.000000 0.000000
CHANNELS 3 Zrotation Xrotation Yrotation
									End Site
									{
OFFSET 0 -0.599380 0.599380
									}
								}
							}
						}
					}
				}
				JOINT RightCollar
				{
					OFFSET 0 0 0
					CHANNELS 3 Zrotation Yrotation Xrotation
					JOINT RightShoulder
					{
						OFFSET -3.30990 0.84213 -0.36430
CHANNELS 3 Zrotation Xrotation Yrotation
						JOINT RightElbow
						{
OFFSET 0 -5.101610 -0.000000
CHANNELS 3 Zrotation Xrotation Yrotation
							JOINT RightWrist
							{
OFFSET 0 -3.232670 -0.000000
CHANNELS 3 Zrotation Xrotation Yrotation
								JOINT rhand
								{
									OFFSET 0 0 0
CHANNELS 3 Zrotation Xrotation Yrotation
									JOINT RFingers
									{
OFFSET 0 -0.702000 -0.000000
CHANNELS 3 Zrotation Xrotation Yrotation
										End Site
										{
OFFSET 0 -0.565970 -0.000000
										}
									}
								}
								JOINT RThumb
								{
OFFSET 0 0.000000 0.000000
CHANNELS 3 Zrotation Xrotation Yrotation
									End Site
									{
OFFSET 0 -0.574610 0.574610
									}
								}
							}
						}
					}
				}
			}
		}
	}
}
MOTION
Frames: 11
Frame Time: 0.008333333333333333
-1.061950 14.964630 -2.455163 181.645726 -33.728855 -164.359292 0.000000 0.000000 0.000000 -5.959590 -2.016423 -51.863633 12.222463 18.483125 66.692319 -0.037297 -12.056521 -7.961548 1.078828 -6.595080 -18.523655 0.000000 0.000000 0.000000 28.947428 -13.133457 -58.201955 -14.662814 -19.302805 74.218846 -0.756845 16.126160 -17.990335 -1.695002 8.182033 -23.278236 -7.686731 5.497917 36.239814 3.280587 1.616010 12.190369 7.006818 -0.650139 -4.888350 -16.867476 -9.932788 -3.489993 40.480148 -11.459221 -24.626435 17.417658 -9.030024 -1.898963 0.000000 0.000000 0.000000 64.059793 -34.245739 46.461413 18.559683 -28.829279 4.836243 -36.448620 -77.227011 -35.251491 0.000000 0.000000 0.000000 -7.125000 0.000000 0.000000 -68.918787 52.856102 21.204763 0.000000 0.000000 0.000000 -20.353139 -25.886103 -0.645901 -14.484862 -23.423177 -3.018429 -43.772339 -17.894559 -31.642411 0.000000 0.000000 0.000000 7.125000 0.000000 0.000000 -6.588777 -10.259705 -7.702778
-1.021949 14.988891 -2.502788 181.874179 -33.319864 -164.333876 0.000000 0.000000 0.000000 -5.964471 -2.253569 -51.936299 12.214290 18.479775 66.666557 -0.079290 -12.536762 -7.705745 1.135985 -6.767040 -19.027666 0.000000 0.000000 0.000000 29.216083 -13.281070 -58.273466 -14.641442 -19.297116 74.154238 -0.614835 16.871879 -17.201004 -1.820405 8.477000 -24.175208 -7.656492 5.572951 36.179943 3.227560 1.714929 12.192506 6.898455 -0.602918 -4.877751 -17.139828 -10.006465 -3.315780 40.885644 -11.558862 -24.887206 17.690675 -9.151673 -1.892089 0.000000 0.000000 0.000000 63.559479 -33.804517 45.101038 19.421448 -29.928536 5.244829 -37.298659 -79.809332 -35.393472 0.000000 0.000000 0.000000 -7.125000 0.000000 0.000000 -69.657662 52.768707 21.491989 0.000000 0.000000 0.000000 -20.104816 -25.566010 -1.070603 -14.572286 -23.546732 -3.053087 -43.675817 -17.905476 -31.381034 0.000000 0.000000 0.000000 7.125000 0.000000 0.000000 -6.612431 -9.925316 -7.700034
-0.982192 15.010309 -2.551568 182.073544 -32.922131 -164.297359 0.000000 0.000000 0.000000 -5.970085 -2.510476 -51.979434 12.198345 18.473227 66.616237 -0.116999 -12.886068 -7.446167 1.097066 -6.648310 -18.680188 0.000000 0.000000 0.000000 29.423456 -13.407945 -58.307230 -14.618049 -19.290826 74.083413 -0.489522 17.457022 -16.505195 -1.997965 8.839687 -25.310469 -7.625032 5.648163 36.117074 3.160146 1.817223 12.183808 6.773239 -0.551478 -4.876543 -17.081657 -10.113847 -3.192325 41.133205 -11.704353 -25.123819 17.798918 -9.302919 -1.905665 0.000000 0.000000 0.000000 63.045622 -33.476089 44.009238 20.384506 -31.064719 5.746316 -38.011524 -82.087507 -35.642297 0.000000 0.000000 0.000000 -7.125000 0.000000 0.000000 -70.427866 52.761955 22.001474 0.000000 0.000000 0.000000 -19.814106 -25.179306 -1.417281 -14.673588 -23.688938 -3.093873 -43.610336 -18.088249 -31.198213 0.000000 0.000000 0.000000 7.125000 0.000000 0.000000 -6.629091 -9.691753 -7.697624
-0.942509 15.030873 -2.600696 182.264162 -32.527783 -164.257503 0.000000 0.000000 0.000000 -5.975919 -2.773326 -52.013687 12.180063 18.465718 66.558532 -0.153418 -13.195995 -7.185454 1.029252 -6.442154 -18.076623 0.000000 0.000000 0.000000 29.612399 -13.528583 -58.329642 -14.594048 -19.284357 74.010719 -0.369230 17.993871 -15.837514 -2.191211 9.222742 -26.517397 -7.593204 5.723428 36.053304 3.088405 1.920532 12.171851 6.642955 -0.498770 -4.878161 -16.924079 -10.231365 -3.084135 41.333267 -11.863635 -25.353167 17.857605 -9.463067 -1.925391 0.000000 0.000000 0.000000 62.527690 -33.181585 42.998214 21.378029 -32.212006 6.275742 -38.683134 -84.274209 -35.923256 0.000000 0.000000 0.000000 -7.125000 0.000000 0.000000 -71.207492 52.779458 22.577804 0.000000 0.000000 0.000000 -19.510648 -24.772568 -1.740494 -14.779063 -23.836754 -3.136502 -43.554190 -18.322709 -31.039019 0.000000 0.000000 0.000000 7.125000 0.000000 0.000000 -6.643647 -9.488514 -7.695313
-0.902826 15.051436 -2.649823 182.454780 -32.133436 -164.217646 0.000000 0.000000 0.000000 -5.981753 -3.036176 -52.047940 12.161781 18.458209 66.500827 -0.189838 -13.505922 -6.924741 0.961438 -6.235998 -17.473058 0.000000 0.000000 0.000000 29.801342 -13.649221 -58.352054 -14.570048 -19.277887 73.938024 -0.248939 18.530719 -15.169832 -2.384457 9.605797 -27.724325 -7.561377 5.798693 35.989534 3.016663 2.023841 12.159894 6.512671 -0.446061 -4.879778 -16.766502 -10.348884 -2.975945 41.533329 -12.022916 -25.582515 17.916292 -9.623215 -1.945117 0.000000 0.000000 0.000000 62.009759 -32.887080 41.987189 22.371551 -33.359294 6.805168 -39.354744 -86.460912 -36.204215 0.000000 0.000000 0.000000 -7.125000 0.000000 0.000000 -71.987119 52.796960 23.154134 0.000000 0.000000 0.000000 -19.207191 -24.365830 -2.063706 -14.884538 -23.984569 -3.179131 -43.498045 -18.557169 -30.879824 0.000000 0.000000 0.000000 7.125000 0.000000 0.000000 -6.658203 -9.285275 -7.693003
-0.863603 15.071142 -2.699207 182.628232 -31.733815 -164.179736 0.000000 0.000000 0.000000 -6.003762 -3.293019 -52.059437 12.140146 18.449266 66.432477 -0.218321 -13.754709 -6.729009 0.907392 -6.069730 -16.986942 0.000000 0.000000 0.000000 29.952547 -13.757807 -58.344542 -14.546507 -19.271498 73.866701 -0.131276 19.036954 -14.511794 -2.497220 9.831790 -28.434539 -7.544662 5.881585 35.934496 2.952805 2.132529 12.140655 6.396711 -0.390397 -4.893615 -16.817430 -10.440920 -2.812773 41.809626 -12.156901 -25.774011 18.069362 -9.757889 -1.939140 0.000000 0.000000 0.000000 61.458222 -32.618766 41.033031 23.390857 -34.493548 7.366925 -39.970964 -88.507196 -36.462089 0.000000 0.000000 0.000000 -7.125000 0.000000 0.000000 -72.703083 52.811347 23.690222 0.000000 0.000000 0.000000 -18.922314 -23.918533 -2.336308 -15.002020 -24.148497 -3.227024 -43.445616 -18.892037 -30.745492 0.000000 0.000000 0.000000 7.125000 0.000000 0.000000 -6.667636 -9.111580 -7.687471
-0.825422 15.088904 -2.749172 182.762820 -31.322254 -164.146234 0.000000 0.000000 0.000000 -6.062391 -3.536258 -52.019407 12.110918 18.437078 66.340028 -0.228834 -13.865065 -6.680401 0.884518 -5.993771 -16.766750 0.000000 0.000000 0.000000 30.018310 -13.839109 -58.269277 -14.524009 -19.265288 73.798483 -0.019562 19.473873 -13.875593 -2.427760 9.702170 -28.020119 -7.562164 5.981746 35.899232 2.906797 2.253398 12.104929 6.313186 -0.328042 -4.935117 -17.340444 -10.475260 -2.525114 42.258530 -12.233610 -25.879803 18.436128 -9.834887 -1.874965 0.000000 0.000000 0.000000 60.830599 -32.409751 40.207627 24.468540 -35.598293 8.001884 -40.461776 -90.235549 -36.667697 0.000000 0.000000 0.000000 -7.125000 0.000000 0.000000 -73.274907 52.818683 24.135199 0.000000 0.000000 0.000000 -18.679508 -23.379403 -2.494318 -15.146687 -24.348905 -3.286838 -43.401600 -19.454243 -30.667455 0.000000 0.000000 0.000000 7.125000 0.000000 0.000000 -6.665470 -9.004776 -7.674648
-0.787240 15.106666 -2.799137 182.897407 -30.910693 -164.112731 0.000000 0.000000 0.000000 -6.121020 -3.779498 -51.979377 12.081690 18.424890 66.247578 -0.239346 -13.975421 -6.631794 0.861644 -5.917813 -16.546558 0.000000 0.000000 0.000000 30.084073 -13.920410 -58.194012 -14.501510 -19.259079 73.730265 0.092151 19.910791 -13.239392 -2.358301 9.572550 -27.605698 -7.579666 6.081907 35.863968 2.860789 2.374267 12.069202 6.229661 -0.265687 -4.976620 -17.863459 -10.509601 -2.237454 42.707435 -12.310319 -25.985596 18.802893 -9.911885 -1.810790 0.000000 0.000000 0.000000 60.202976 -32.200736 39.382224 25.546224 -36.703038 8.636843 -40.952588 -91.963903 -36.873304 0.000000 0.000000 0.000000 -7.125000 0.000000 0.000000 -73.846732 52.826019 24.580176 0.000000 0.000000 0.000000 -18.436701 -22.840272 -2.652329 -15.291355 -24.549314 -3.346651 -43.357585 -20.016450 -30.589417 0.000000 0.000000 0.000000 7.125000 0.000000 0.000000 -6.663304 -8.897972 -7.661825
-0.749059 15.124428 -2.849102 183.031995 -30.499132 -164.079229 0.000000 0.000000 0.000000 -6.179650 -4.022738 -51.939347 12.052462 18.412702 66.155129 -0.249859 -14.085777 -6.583186 0.838770 -5.841855 -16.326365 0.000000 0.000000 0.000000 30.149836 -14.001711 -58.118747 -14.479011 -19.252869 73.662047 0.203865 20.347710 -12.603191 -2.288841 9.442930 -27.191278 -7.597168 6.182068 35.828704 2.814780 2.495136 12.033476 6.146136 -0.203332 -5.018123 -18.386473 -10.543941 -1.949795 43.156340 -12.387028 -26.091389 19.169659 -9.988883 -1.746616 0.000000 0.000000 0.000000 59.575353 -31.991721 38.556820 26.623907 -37.807783 9.271802 -41.443399 -93.692257 -37.078911 0.000000 0.000000 0.000000 -7.125000 0.000000 0.000000 -74.418556 52.833355 25.025153 0.000000 0.000000 0.000000 -18.193895 -22.301142 -2.810339 -15.436022 -24.749722 -3.406465 -43.313569 -20.578657 -30.511379 0.000000 0.000000 0.000000 7.125000 0.000000 0.000000 -6.661138 -8.791169 -7.649001
-0.711438 15.139314 -2.899603 183.153908 -30.100002 -164.067175 0.000000 0.000000 0.000000 -6.237402 -4.267635 -51.852154 12.015775 18.397199 66.038817 -0.241434 -14.073629 -6.695374 0.843219 -5.857006 -16.370167 0.000000 0.000000 0.000000 30.177113 -14.074360 -57.990687 -14.432870 -19.239908 73.521974 0.201947 19.967882 -12.322168 -2.156203 9.170551 -26.340052 -7.614890 6.277915 35.815937 2.774793 2.609229 11.990388 6.071020 -0.143902 -5.074274 -18.332532 -10.672120 -1.758364 43.307980 -12.565815 -26.247270 19.219612 -10.133933 -1.746788 0.000000 0.000000 0.000000 58.913094 -31.832721 38.130248 27.757942 -38.845792 9.988999 -41.963289 -95.816712 -37.557604 0.000000 0.000000 0.000000 -7.125000 0.000000 0.000000 -75.369029 52.953640 26.082403 0.000000 0.000000 0.000000 -17.953647 -21.735541 -2.977027 -15.580226 -24.947255 -3.467448 -43.282521 -21.135964 -30.451013 0.000000 0.000000 0.000000 7.125000 0.000000 0.000000 -6.660946 -8.709836 -7.640858
-0.673921 15.153668 -2.950204 183.273477 -29.703170 -164.059088 0.000000 0.000000 0.000000 -6.294991 -4.512839 -51.756239 11.977709 18.381083 65.918092 -0.229506 -14.038827 -6.837297 0.852721 -5.889007 -16.462790 0.000000 0.000000 0.000000 30.197272 -14.145408 -57.852865 -14.382356 -19.225698 73.368614 0.179015 19.437012 -12.106828 -2.011883 8.871773 -25.408047 -7.632652 6.372964 35.807330 2.735918 2.722069 11.945940 5.997458 -0.085012 -5.133135 -18.171893 -10.817654 -1.584728 43.404646 -12.763480 -26.412415 19.210977 -10.291568 -1.758861 0.000000 0.000000 0.000000 58.244430 -31.682971 37.777432 28.902399 -39.871460 10.721404 -42.488556 -98.014418 -38.086799 0.000000 0.000000 0.000000 -7.125000 0.000000 0.000000 -76.389527 53.094813 27.252883 0.000000 0.000000 0.000000 -17.713873 -21.165046 -3.145319 -15.724345 -25.144255 -3.528648 -43.253871 -21.692366 -30.393914 0.000000 0.000000 0.000000 7.125000 0.000000 0.000000 -6.661120 -8.633213 -7.633580
